<?xml version="1.0" encoding="UTF-8" standalone="no"?>
<!-- Created with Inkscape (http://www.inkscape.org/) -->

<svg
   width="85.599998mm"
   height="53.98mm"
   viewBox="0 0 85.599999 53.979999"
   version="1.1"
   id="svg5"
   inkscape:version="1.4.4 (dcaf3e7d9e, 2026-05-05)"
   sodipodi:docname="barebaric-text-as-path-joined.svg"
   xml:space="preserve"
   xmlns:inkscape="http://www.inkscape.org/namespaces/inkscape"
   xmlns:sodipodi="http://sodipodi.sourceforge.net/DTD/sodipodi-0.dtd"
   xmlns="http://www.w3.org/2000/svg"
   xmlns:svg="http://www.w3.org/2000/svg"><sodipodi:namedview
     id="namedview7"
     pagecolor="#ffffff"
     bordercolor="#666666"
     borderopacity="1.0"
     inkscape:showpageshadow="2"
     inkscape:pageopacity="0.0"
     inkscape:pagecheckerboard="0"
     inkscape:deskcolor="#d1d1d1"
     inkscape:document-units="mm"
     showgrid="false"
     inkscape:zoom="3.2549192"
     inkscape:cx="197.23992"
     inkscape:cy="161.90878"
     inkscape:window-width="2822"
     inkscape:window-height="1414"
     inkscape:window-x="1018"
     inkscape:window-y="210"
     inkscape:window-maximized="0"
     inkscape:current-layer="text243" /><defs
     id="defs2"><inkscape:path-effect
       effect="fillet_chamfer"
       id="path-effect1835"
       is_visible="true"
       lpeversion="1"
       nodesatellites_param="F,0,0,1,0,1.3229167,0,1 @ F,0,0,1,0,1.3229167,0,1 @ F,0,0,1,0,1.3229167,0,1 @ F,0,0,1,0,1.3229167,0,1"
       unit="px"
       method="auto"
       mode="F"
       radius="5"
       chamfer_steps="1"
       flexible="false"
       use_knot_distance="true"
       apply_no_radius="true"
       apply_with_radius="true"
       only_selected="false"
       hide_knots="false" /><inkscape:path-effect
       effect="fillet_chamfer"
       id="path-effect1829"
       is_visible="true"
       lpeversion="1"
       nodesatellites_param="F,0,0,1,0,1.3229167,0,1 @ F,0,0,1,0,1.3229167,0,1 @ F,0,0,1,0,1.3229167,0,1 @ F,0,0,1,0,1.3229167,0,1"
       unit="px"
       method="auto"
       mode="F"
       radius="5"
       chamfer_steps="1"
       flexible="false"
       use_knot_distance="true"
       apply_no_radius="true"
       apply_with_radius="true"
       only_selected="false"
       hide_knots="false" /></defs><g
     inkscape:label="Layer 1"
     inkscape:groupmode="layer"
     id="layer1"><g
       aria-label="Barebaric"
       id="text243"
       style="font-size:12.3027px;line-height:1.25;font-family:Eclat;-inkscape-font-specification:'Eclat, Normal';letter-spacing:-1.77665px;stroke-width:0.307565"><path
         id="path566"
         d="M 18.251599 22.844084 C 16.955715 22.844084 15.803267 22.962799 14.794446 23.200651 C 13.793826 23.430302 12.85884 23.828453 11.989449 24.394377 C 11.571157 24.673238 11.239181 24.996813 10.993127 25.365894 C 10.722468 25.775984 10.586951 26.19042 10.586951 26.608712 C 10.586951 26.985994 10.697781 27.297484 10.91923 27.543538 C 11.148881 27.78139 11.452486 27.900623 11.829769 27.900623 C 12.141438 27.900623 12.420356 27.818162 12.66641 27.654126 C 12.920666 27.481889 13.088754 27.272828 13.170772 27.026774 C 12.998535 26.977563 12.867218 26.883535 12.776998 26.744104 C 12.69498 26.604673 12.654008 26.44447 12.654008 26.26403 C 12.654008 25.689904 12.9823 25.152551 13.638444 24.652242 C 14.220772 24.209345 14.843752 23.934626 15.508097 23.828003 C 15.286649 24.065855 15.069704 24.389947 14.856458 24.800037 C 14.643211 25.201925 14.442035 25.665217 14.253394 26.190133 L 13.24467 28.970841 C 13.11344 29.331721 12.970039 29.651611 12.814205 29.930473 C 12.625564 30.266747 12.440673 30.500493 12.260234 30.631722 C 12.530893 30.820363 12.805612 30.95168 13.084473 31.025496 C 13.371536 31.099313 13.716113 31.136084 14.118001 31.136084 C 14.528091 31.136084 14.913641 31.070426 15.27452 30.939197 C 15.635399 30.807968 15.922203 30.647764 16.135449 30.459123 C 16.553741 30.688773 16.963977 30.857378 17.365865 30.964001 C 17.775955 31.078827 18.243448 31.136084 18.768363 31.136084 C 19.768983 31.136084 20.638311 30.910222 21.376473 30.459123 C 21.698998 30.262383 21.958507 30.039404 22.154203 29.789396 C 22.271016 30.055323 22.448833 30.286703 22.688021 30.483927 C 23.114514 30.836605 23.651867 31.013094 24.299809 31.013094 C 24.775513 31.013094 25.25089 30.873376 25.726595 30.594515 C 25.882429 30.504295 26.06732 30.369294 26.280566 30.188855 C 26.395392 30.451312 26.59185 30.656172 26.870711 30.803805 C 27.149572 30.943235 27.461579 31.013094 27.806055 31.013094 C 28.427376 31.013094 29.038856 30.774154 29.641085 30.296859 L 29.424561 30.890104 L 32.106567 30.890104 L 33.915243 25.907463 L 31.245638 25.907463 L 30.365072 28.316618 C 30.252301 28.560118 30.108844 28.790596 29.93409 29.007532 C 29.647027 29.368411 29.38071 29.549101 29.134656 29.549101 C 28.954216 29.549101 28.863871 29.462956 28.863871 29.290719 C 28.863871 29.216902 28.872269 29.134958 28.888676 29.044739 C 28.913283 28.946316 28.937967 28.863856 28.962573 28.798242 L 30.007987 25.907463 L 27.375073 25.907463 L 27.141496 26.337927 C 27.034872 26.157487 26.837897 26.02197 26.550834 25.93175 C 26.263771 25.833329 25.94808 25.784473 25.603605 25.784473 C 24.660398 25.784473 23.832042 26.075476 23.118486 26.657804 C 22.782695 26.931547 22.521947 27.233618 22.335588 27.564209 C 22.269893 27.467699 22.192059 27.374689 22.102527 27.285156 C 21.823666 27.006296 21.454402 26.793035 20.995101 26.645402 C 21.544621 26.522375 22.012115 26.313315 22.397599 26.01805 C 22.848699 25.665373 23.074561 25.263538 23.074561 24.812439 C 23.074561 24.115286 22.672726 23.614705 21.868949 23.311239 C 21.065173 22.999571 19.859152 22.844084 18.251599 22.844084 z M 44.940926 23.139156 L 43.58752 26.903784 C 43.530108 27.059618 43.431362 27.326453 43.291931 27.703735 C 43.209348 27.947896 43.145091 28.173724 43.098661 28.38173 L 43.026314 28.355375 C 42.862278 28.814676 42.550789 29.217028 42.091488 29.561503 C 41.574774 29.95519 41.025337 30.151648 40.443009 30.151648 C 40.041121 30.151648 39.72123 30.078105 39.483378 29.930473 C 39.196315 29.750033 39.052913 29.4832 39.052913 29.130522 C 39.905901 29.130522 40.689084 28.954549 41.402641 28.601872 C 42.239225 28.191782 42.657345 27.654429 42.657345 26.990084 C 42.657345 26.579994 42.423598 26.267988 41.956095 26.05474 C 41.562409 25.874301 41.049743 25.784473 40.418205 25.784473 C 39.30276 25.784473 38.367773 26.02242 37.613208 26.498124 C 36.971884 26.902158 36.581556 27.423678 36.441703 28.063403 L 36.437569 28.060303 C 36.232524 28.248944 36.060236 28.388663 35.920805 28.478882 C 35.71576 28.610111 35.514584 28.675252 35.317741 28.675252 C 35.079889 28.675252 34.87923 28.597509 34.715194 28.441675 C 34.559359 28.277639 34.481099 28.064378 34.481099 27.801921 L 34.911564 27.801921 C 35.297049 27.801921 35.633742 27.69109 35.920805 27.469641 C 36.21607 27.23999 36.363672 26.948987 36.363672 26.596309 C 36.363672 26.358457 36.281728 26.165683 36.117692 26.01805 C 35.961858 25.862216 35.752281 25.784473 35.489823 25.784473 C 34.956706 25.784473 34.509699 25.993533 34.14882 26.411825 C 33.787941 26.830116 33.607768 27.313895 33.607768 27.863416 C 33.607768 28.314515 33.763771 28.683779 34.075439 28.970841 C 34.387108 29.257905 34.764256 29.401306 35.207153 29.401306 C 35.584436 29.401306 35.929014 29.310962 36.240682 29.130522 C 36.301183 29.093902 36.358652 29.056027 36.413281 29.016317 C 36.502858 29.57265 36.791859 30.024962 37.280929 30.37334 C 37.887861 30.799834 38.708333 31.013094 39.74176 31.013094 C 40.627554 31.013094 41.427024 30.811919 42.14058 30.41003 C 42.514122 30.197151 42.829803 29.943913 43.087292 29.650387 C 43.203119 30.028904 43.447688 30.331516 43.821098 30.557825 C 44.313206 30.861291 45.010245 31.013094 45.912443 31.013094 C 47.118108 31.013094 48.127154 30.721574 48.939132 30.139246 C 49.160507 29.9796 49.352952 29.807058 49.516874 29.621448 C 49.62742 29.958756 49.827135 30.246329 50.115287 30.483927 C 50.541781 30.836605 51.078616 31.013094 51.726558 31.013094 C 52.202263 31.013094 52.678157 30.873376 53.153861 30.594515 C 53.309696 30.504295 53.494069 30.369294 53.707316 30.188855 C 53.822141 30.451312 54.019117 30.656172 54.297978 30.803805 C 54.576839 30.943235 54.888328 31.013094 55.232804 31.013094 C 55.854124 31.013094 56.466123 30.774152 57.068351 30.296859 L 56.851827 30.890104 L 59.533834 30.890104 L 61.342509 25.907463 L 58.672904 25.907463 L 57.790788 28.321269 C 57.678299 28.563283 57.535148 28.79179 57.361357 29.007532 C 57.074293 29.368411 56.807459 29.549101 56.561405 29.549101 C 56.380966 29.549101 56.291138 29.462956 56.291138 29.290719 C 56.291138 29.216902 56.299019 29.134958 56.315426 29.044739 C 56.340032 28.946316 56.364716 28.863856 56.389323 28.798242 L 57.435254 25.907463 L 54.80234 25.907463 L 54.568762 26.337927 C 54.462139 26.157487 54.265164 26.02197 53.978101 25.93175 C 53.691038 25.833329 53.375348 25.784473 53.030872 25.784473 C 52.087665 25.784473 51.259309 26.075476 50.545752 26.657804 C 50.387421 26.786879 50.245563 26.922268 50.120455 27.063981 C 50.030497 26.788951 49.878423 26.546932 49.664669 26.337927 C 49.303789 25.968846 48.815811 25.784473 48.200675 25.784473 C 47.897209 25.784473 47.589919 25.833329 47.278251 25.93175 C 47.073206 25.997365 46.814773 26.103995 46.503105 26.251628 L 47.622416 23.139156 L 44.940926 23.139156 z M 66.332385 23.422343 C 65.914093 23.422343 65.569516 23.508488 65.298857 23.680725 C 65.028197 23.844761 64.89268 24.082708 64.89268 24.394377 C 64.89268 24.722449 65.023997 24.97248 65.286454 25.144718 C 65.557114 25.316956 65.905891 25.403101 66.332385 25.403101 C 66.767081 25.403101 67.127944 25.316956 67.415007 25.144718 C 67.70207 24.964278 67.845471 24.714247 67.845471 24.394377 C 67.845471 24.066305 67.709954 23.824157 67.439294 23.668323 C 67.168635 23.504287 66.799888 23.422343 66.332385 23.422343 z M 19.801892 23.61923 C 20.039744 23.61923 20.244604 23.692773 20.416842 23.840405 C 20.589079 23.988038 20.675224 24.172928 20.675224 24.394377 C 20.675224 24.870081 20.461963 25.267715 20.03547 25.587585 C 19.608976 25.899253 19.100511 26.05474 18.509981 26.05474 L 17.931722 26.05474 C 18.169575 25.398596 18.341863 24.955789 18.448486 24.726139 C 18.801164 23.987977 19.252371 23.61923 19.801892 23.61923 z M 62.91709 25.784473 C 62.383973 25.784473 61.936966 25.993533 61.576086 26.411825 C 61.215207 26.830116 61.035034 27.313895 61.035034 27.863416 C 61.035034 28.314515 61.19052 28.683779 61.502189 28.970841 C 61.813858 29.257905 62.191006 29.401306 62.633903 29.401306 C 62.918279 29.401306 63.184172 29.349825 63.43127 29.24731 C 63.413134 29.341864 63.404399 29.438518 63.404399 29.536698 C 63.404399 29.987797 63.559885 30.34866 63.871554 30.61932 C 64.191424 30.881778 64.593259 31.013094 65.077165 31.013094 C 65.831731 31.013094 66.545572 30.705288 67.218119 30.090153 C 67.473386 29.860053 67.695671 29.615359 67.884745 29.355314 C 68.033283 29.829738 68.338159 30.205749 68.799935 30.483927 C 69.382263 30.836605 70.169647 31.013094 71.162065 31.013094 C 72.105272 31.013094 72.917342 30.791432 73.598092 30.348535 C 74.287043 29.897436 74.758737 29.319112 75.012992 28.613757 L 74.336031 28.355375 C 74.155592 28.855685 73.856187 29.274322 73.437895 29.610596 C 72.96219 29.99608 72.433239 30.188855 71.850911 30.188855 C 70.891301 30.188855 70.411723 29.733447 70.411723 28.823047 C 70.411723 28.19971 70.546723 27.662358 70.817383 27.211259 C 71.129051 26.694546 71.543488 26.436629 72.060201 26.436629 C 72.084806 26.436629 72.125778 26.44451 72.183191 26.460917 C 72.248808 26.477324 72.302381 26.489924 72.343388 26.498124 C 72.179352 26.57194 72.035434 26.682254 71.912406 26.829887 C 71.764774 27.010326 71.691231 27.1989 71.691231 27.395744 C 71.691231 27.69921 71.793661 27.941358 71.998706 28.121798 C 72.179145 28.277632 72.412892 28.355375 72.699955 28.355375 C 73.036229 28.355375 73.315149 28.245061 73.536597 28.023612 C 73.766247 27.793962 73.880762 27.515043 73.880762 27.186971 C 73.880762 26.72767 73.684304 26.378893 73.290617 26.14104 C 72.896931 25.903188 72.326491 25.784473 71.580127 25.784473 C 70.505691 25.784473 69.615877 26.026104 68.910522 26.51001 C 68.318073 26.915709 67.958287 27.435345 67.831002 28.068571 L 67.771574 28.0479 C 67.640345 28.40878 67.44337 28.749157 67.180912 29.069027 C 66.918455 29.380695 66.676824 29.536698 66.455375 29.536698 C 66.233926 29.536698 66.123096 29.446354 66.123096 29.265914 C 66.123096 29.216702 66.135179 29.159445 66.159786 29.093831 C 66.167986 29.061023 66.184789 29.01165 66.209395 28.946037 L 67.316305 25.907463 L 64.634298 25.907463 L 63.833313 28.088725 C 63.641923 28.262959 63.479863 28.393271 63.347555 28.478882 C 63.14251 28.610111 62.941851 28.675252 62.745007 28.675252 C 62.507155 28.675252 62.305979 28.597509 62.141943 28.441675 C 61.986109 28.277639 61.908366 28.064378 61.908366 27.801921 L 62.338831 27.801921 C 62.724315 27.801921 63.060491 27.69109 63.347555 27.469641 C 63.642819 27.23999 63.790422 26.948987 63.790422 26.596309 C 63.790422 26.358457 63.708478 26.165683 63.544442 26.01805 C 63.388608 25.862216 63.179548 25.784473 62.91709 25.784473 z M 40.701392 26.374618 C 40.87363 26.374618 41.00863 26.423991 41.107052 26.522412 C 41.205474 26.620833 41.254846 26.752151 41.254846 26.916187 C 41.254846 27.309873 41.0253 27.646049 40.565999 27.92491 C 40.147707 28.179166 39.671814 28.306283 39.138696 28.306283 C 39.138696 27.871587 39.2989 27.440865 39.61877 27.014372 C 39.946842 26.587878 40.307706 26.374618 40.701392 26.374618 z M 26.268164 26.571505 C 26.563429 26.571505 26.711031 26.76848 26.711031 27.162166 C 26.711031 27.629669 26.522457 28.228478 26.145174 28.958439 C 25.735084 29.762215 25.333249 30.16405 24.939563 30.16405 C 24.79193 30.16405 24.672699 30.102592 24.582479 29.979565 C 24.49226 29.856538 24.447087 29.713137 24.447087 29.549101 C 24.447087 29.122607 24.660347 28.519597 25.086841 27.740426 C 25.521536 26.961255 25.915487 26.571505 26.268164 26.571505 z M 53.694914 26.571505 C 53.990178 26.571505 54.137781 26.76848 54.137781 27.162166 C 54.137781 27.629669 53.949206 28.228478 53.571924 28.958439 C 53.161834 29.762215 52.759999 30.16405 52.366313 30.16405 C 52.218681 30.16405 52.099965 30.102592 52.009745 29.979565 C 51.919525 29.856538 51.874353 29.713137 51.874353 29.549101 C 51.874353 29.122607 52.087613 28.519597 52.514107 27.740426 C 52.948803 26.961255 53.342236 26.571505 53.694914 26.571505 z M 47.179549 26.780794 C 47.310778 26.780794 47.413724 26.842252 47.487541 26.965279 C 47.569559 27.080104 47.610531 27.227707 47.610531 27.408146 C 47.610531 28.006878 47.409355 28.64666 47.007467 29.327409 C 46.580973 30.049167 46.150251 30.41003 45.715556 30.41003 C 45.592528 30.41003 45.494299 30.369058 45.420483 30.28704 C 45.35487 30.196821 45.322298 30.09019 45.322298 29.967163 C 45.322298 29.40944 45.535559 28.741288 45.962052 27.962118 C 46.396748 27.174745 46.802266 26.780794 47.179549 26.780794 z M 17.624247 26.867094 L 18.190104 26.867094 C 18.567387 26.867094 18.862592 26.965324 19.075838 27.162166 C 19.297287 27.350808 19.408118 27.597157 19.408118 27.900623 C 19.408117 28.458344 19.219543 28.942124 18.842261 29.352214 C 18.464978 29.762304 18.001685 29.967163 17.452165 29.967163 C 17.296331 29.967163 17.148728 29.946675 17.009298 29.905668 C 16.878069 29.856457 16.742552 29.790799 16.603121 29.708781 L 17.624247 26.867094 z " /></g></g></svg>
